<svg width="34" height="32" viewBox="0 0 34 32" fill="none" xmlns="http://www.w3.org/2000/svg">
<path d="M2.8002 28.9613C2.45622 28.6124 2.2336 28.162 2.16522 27.6768C2.09683 27.1915 2.1863 26.6971 2.42042 26.2664L7.85542 16.0022L2.42444 5.73999C2.19072 5.30939 2.10157 4.81503 2.17014 4.3298C2.23871 3.84457 2.46136 3.39415 2.80527 3.04495L2.83603 3.01419C3.1727 2.67118 3.60885 2.44293 4.08254 2.36187C4.55622 2.28081 5.04334 2.35106 5.4747 2.56263L30.1905 13.9045C30.198 13.9077 30.2052 13.9115 30.2121 13.9158C30.6022 14.1061 30.9311 14.402 31.1614 14.77C31.3916 15.138 31.5139 15.5633 31.5143 15.9975C31.5148 16.4316 31.3934 16.8572 31.1639 17.2259C30.9344 17.5945 30.6061 17.8914 30.2164 18.0828L30.1948 18.0941L5.46944 29.4426C5.03126 29.6576 4.53586 29.7269 4.05562 29.6403C3.57539 29.5537 3.13549 29.3158 2.8002 28.9613Z" fill="black" stroke="white" stroke-width="4.22708" stroke-linejoin="round"/>
</svg>
