<svg width="17" height="18" viewBox="0 0 17 18" fill="none" xmlns="http://www.w3.org/2000/svg">
<g clip-path="url(#clip0_235_80)">
<path d="M8.39264 2.40863C6.41262 2.3796 3.66221 2.42203 3.09599 3.94317L1.70468 7.20796C1.64289 7.13748 1.56201 7.08641 1.47181 7.0609L0.911652 6.90332C0.850062 6.88584 0.785625 6.88069 0.722042 6.88819C0.658458 6.89568 0.596981 6.91565 0.541139 6.94697C0.485297 6.97828 0.43619 7.02032 0.396638 7.07066C0.357086 7.12101 0.327867 7.17867 0.31066 7.24034L0.0184576 8.27804C0.000981214 8.33964 -0.00415387 8.40409 0.0033476 8.46768C0.0108491 8.53127 0.0308392 8.59275 0.0621698 8.6486C0.0935005 8.70444 0.135554 8.75354 0.185916 8.79309C0.236279 8.83263 0.293957 8.86184 0.355639 8.87903L0.915959 9.03662C0.93478 9.04188 0.953282 9.04363 0.972103 9.0465C0.865079 9.31335 0.798249 9.60683 0.798249 9.78148V13.5758C0.798249 13.7704 0.879593 13.8603 1.00943 13.9026V14.9135C1.00926 15.0032 1.02681 15.0921 1.06106 15.175C1.09532 15.2579 1.14561 15.3332 1.20905 15.3967C1.27249 15.4601 1.34783 15.5104 1.43075 15.5446C1.51367 15.5788 1.60253 15.5964 1.69224 15.5962H3.52441C3.6141 15.5963 3.70295 15.5788 3.78585 15.5446C3.86875 15.5103 3.94407 15.46 4.00749 15.3966C4.07092 15.3332 4.12119 15.2579 4.15544 15.175C4.18969 15.0921 4.20723 15.0032 4.20706 14.9135V13.9396H12.7929V14.9135C12.7928 15.0032 12.8103 15.0921 12.8446 15.175C12.8789 15.2579 12.9292 15.3332 12.9926 15.3967C13.0561 15.4601 13.1314 15.5104 13.2144 15.5446C13.2973 15.5788 13.3862 15.5964 13.4759 15.5962H15.3077C15.3975 15.5964 15.4863 15.5789 15.5693 15.5446C15.6522 15.5104 15.7276 15.4602 15.7911 15.3967C15.8545 15.3333 15.9049 15.258 15.9391 15.175C15.9734 15.0921 15.991 15.0032 15.9909 14.9135V13.9026C16.1205 13.8603 16.2017 13.7702 16.2017 13.5756V9.78164C16.2017 9.60699 16.1349 9.31351 16.0279 9.04666C16.0467 9.04379 16.0652 9.04188 16.084 9.03678L16.6445 8.87919C16.7062 8.86198 16.7638 8.83276 16.8142 8.79321C16.8645 8.75366 16.9065 8.70455 16.9379 8.64871C16.9692 8.59287 16.9891 8.53139 16.9966 8.46781C17.0041 8.40423 16.999 8.33979 16.9815 8.2782L16.6896 7.2405C16.6724 7.17882 16.6431 7.12115 16.6035 7.0708C16.564 7.02045 16.5148 6.97842 16.459 6.94711C16.4031 6.91579 16.3416 6.89582 16.278 6.88833C16.2144 6.88085 16.1499 6.88599 16.0883 6.90348L15.5282 7.06106C15.438 7.08657 15.3571 7.13764 15.2953 7.20812L13.904 3.94333C13.2971 2.39922 10.3727 2.43798 8.39264 2.40895V2.40863ZM14.0635 7.41419C14.0963 7.51212 13.9978 7.5772 13.8946 7.58326C13.8946 7.58326 13.5572 7.61197 13.0921 7.64945C12.7382 6.82245 11.9157 6.2398 10.9628 6.2398C9.91729 6.2398 9.02952 6.94192 8.74481 7.89795C8.66586 7.89907 8.57415 7.90226 8.50078 7.90226C6.69956 7.90226 3.1054 7.58326 3.1054 7.58326C3.00221 7.5772 2.90364 7.51212 2.93649 7.41419C4.32079 3.19464 4.36194 3.51173 8.42326 3.55607C12.4847 3.60041 12.5084 3.29896 14.0635 7.41419ZM10.9628 7.0373C11.2136 7.03641 11.4606 7.09797 11.6817 7.21643C11.9027 7.33488 12.0908 7.5065 12.2289 7.7158C11.4155 7.77609 10.4792 7.83782 9.60675 7.87371C9.73227 7.62169 9.92579 7.4098 10.1654 7.262C10.4051 7.11419 10.6813 7.03636 10.9628 7.0373ZM1.59925 8.40675C1.61153 8.42478 1.6235 8.44296 1.63705 8.46067H1.58442L1.59925 8.40675ZM2.49931 9.46647C2.85563 9.46057 4.7685 10.1045 4.7685 10.1045C5.00727 10.1716 5.21765 10.6233 5.21637 10.8715C5.21287 11.7073 3.0558 11.4173 2.18031 11.4206C2.12144 11.4208 2.06313 11.4093 2.00872 11.3869C1.9543 11.3644 1.90486 11.3314 1.86323 11.2898C1.8216 11.2482 1.7886 11.1988 1.76613 11.1444C1.74365 11.0899 1.73215 11.0316 1.73228 10.9728V9.9145C1.73228 9.66632 2.14299 9.47237 2.49931 9.46647ZM14.501 9.46647C14.8573 9.47237 15.268 9.66632 15.268 9.9145V10.9728C15.2681 11.0316 15.2566 11.0899 15.2342 11.1444C15.2117 11.1988 15.1787 11.2482 15.1371 11.2898C15.0954 11.3314 15.046 11.3644 14.9916 11.3869C14.9372 11.4093 14.8788 11.4208 14.82 11.4206C13.9443 11.4173 11.7874 11.7073 11.7839 10.8715C11.7826 10.6233 11.9929 10.1716 12.2318 10.1045C12.2318 10.1045 14.1447 9.46057 14.501 9.46647Z" fill="white"/>
</g>
<defs>
<clipPath id="clip0_235_80">
<rect width="17" height="17" fill="white" transform="translate(0 0.5)"/>
</clipPath>
</defs>
</svg>
